<svg width="375" height="812" viewBox="0 0 375 812" fill="none" xmlns="http://www.w3.org/2000/svg">
  <rect width="375" height="812" fill="#F9FAFB"/>
  <!-- Mockup top -->
  <g transform="translate(28, 24)">
    <rect x="0" y="0" width="320" height="420" rx="12" fill="#FFFFFF" stroke="#E5E7EB"/>
    <rect x="16" y="16" width="288" height="288" rx="12" fill="#F3F4F6"/>
    <image href="../components/print-area-overlay.svg" x="38" y="70" width="244" height="176"/>
  </g>
  <!-- Info below -->
  <g transform="translate(28, 464)">
    <text x="0" y="0" font-family="Inter, Arial" font-size="20" font-weight="700" fill="#111827">Product Title</text>
    <text x="0" y="28" font-family="Inter, Arial" font-size="16" font-weight="600" fill="#2563EB">150.000 VNĐ</text>
    <text x="0" y="52" font-family="Inter, Arial" font-size="12" fill="#4B5563">Upload your design and preview it on the mockup.</text>
    <g transform="translate(0, 80)">
      <text x="0" y="0" font-family="Inter, Arial" font-size="12" font-weight="600" fill="#374151">Choose Color</text>
      <image href="../components/color-chip.svg" x="0" y="8" width="96" height="32"/>
      <image href="../components/color-chip.svg" x="104" y="8" width="96" height="32"/>
      <image href="../components/color-chip.svg" x="208" y="8" width="96" height="32"/>
    </g>
    <g transform="translate(0, 136)">
      <text x="0" y="0" font-family="Inter, Arial" font-size="12" font-weight="600" fill="#374151">Upload Design</text>
      <image href="../components/button-primary.svg" x="0" y="8" width="200" height="48"/>
    </g>
    <g transform="translate(0, 196)">
      <image href="../components/button-primary.svg" x="0" y="0" width="320" height="48"/>
      <rect x="0" y="56" width="320" height="48" rx="8" fill="#10B981"/>
      <text x="160" y="86" text-anchor="middle" font-family="Inter, Arial" font-size="16" font-weight="600" fill="#FFFFFF">Download Design</text>
    </g>
  </g>
</svg>


